<?xml version="1.0" encoding="UTF-8" standalone="no"?><svg xmlns="http://www.w3.org/2000/svg" xmlns:xlink="http://www.w3.org/1999/xlink" contentStyleType="text/css" height="536px" preserveAspectRatio="none" style="width:575px;height:536px;background:#FFFFFF;" version="1.1" viewBox="0 0 575 536" width="575px" zoomAndPan="magnify"><defs/><g><rect fill="#FFFFFF" height="324.416" style="stroke:#181818;stroke-width:1.0;" width="10" x="148.5" y="112.7988"/><rect fill="#FFFFFF" height="295.1055" style="stroke:#181818;stroke-width:1.0;" width="10" x="278.5" y="142.1094"/><rect fill="#FFFFFF" height="146.5527" style="stroke:#181818;stroke-width:1.0;" width="10" x="462" y="254.3516"/><rect height="193.1738" style="stroke:#000000;stroke-width:1.5;fill:none;" width="465" x="104.5" y="215.7305"/><line style="stroke:#181818;stroke-width:0.5;fill:none;stroke-dasharray:5.0,5.0;" x1="23" x2="23" y1="81.4883" y2="455.2148"/><line style="stroke:#181818;stroke-width:0.5;fill:none;stroke-dasharray:5.0,5.0;" x1="153.5" x2="153.5" y1="81.4883" y2="455.2148"/><line style="stroke:#181818;stroke-width:0.5;fill:none;stroke-dasharray:5.0,5.0;" x1="283.5" x2="283.5" y1="81.4883" y2="455.2148"/><line style="stroke:#181818;stroke-width:0.5;fill:none;stroke-dasharray:5.0,5.0;" x1="466.5" x2="466.5" y1="81.4883" y2="455.2148"/><text fill="#000000" font-family="sans-serif" font-size="14" lengthAdjust="spacing" textLength="31" x="5" y="78.5352">User</text><ellipse cx="23.5" cy="13.5" fill="#E2E2F0" rx="8" ry="8" style="stroke:#181818;stroke-width:0.5;"/><path d="M23.5,21.5 L23.5,48.5 M10.5,29.5 L36.5,29.5 M23.5,48.5 L10.5,63.5 M23.5,48.5 L36.5,63.5 " fill="none" style="stroke:#181818;stroke-width:0.5;"/><text fill="#000000" font-family="sans-serif" font-size="14" lengthAdjust="spacing" textLength="31" x="5" y="467.75">User</text><ellipse cx="23.5" cy="479.2031" fill="#E2E2F0" rx="8" ry="8" style="stroke:#181818;stroke-width:0.5;"/><path d="M23.5,487.2031 L23.5,514.2031 M10.5,495.2031 L36.5,495.2031 M23.5,514.2031 L10.5,529.2031 M23.5,514.2031 L36.5,529.2031 " fill="none" style="stroke:#181818;stroke-width:0.5;"/><text fill="#000000" font-family="sans-serif" font-size="14" lengthAdjust="spacing" textLength="72" x="114.5" y="78.5352">Jest (main)</text><path d="M133,37 L133,61 M133,49 L150,49 " fill="none" style="stroke:#181818;stroke-width:0.5;"/><ellipse cx="162" cy="49" fill="#E2E2F0" rx="12" ry="12" style="stroke:#181818;stroke-width:0.5;"/><text fill="#000000" font-family="sans-serif" font-size="14" lengthAdjust="spacing" textLength="72" x="114.5" y="467.75">Jest (main)</text><path d="M133,474.7031 L133,498.7031 M133,486.7031 L150,486.7031 " fill="none" style="stroke:#181818;stroke-width:0.5;"/><ellipse cx="162" cy="486.7031" fill="#E2E2F0" rx="12" ry="12" style="stroke:#181818;stroke-width:0.5;"/><rect fill="#E2E2F0" height="30.4883" rx="2.5" ry="2.5" style="stroke:#181818;stroke-width:0.5;" width="162" x="202.5" y="50"/><text fill="#000000" font-family="sans-serif" font-size="14" lengthAdjust="spacing" textLength="148" x="209.5" y="70.5352">DetoxPrimaryContext</text><rect fill="#E2E2F0" height="30.4883" rx="2.5" ry="2.5" style="stroke:#181818;stroke-width:0.5;" width="162" x="202.5" y="454.2148"/><text fill="#000000" font-family="sans-serif" font-size="14" lengthAdjust="spacing" textLength="148" x="209.5" y="474.75">DetoxPrimaryContext</text><rect fill="#E2E2F0" height="30.4883" rx="2.5" ry="2.5" style="stroke:#181818;stroke-width:0.5;" width="185" x="374.5" y="50"/><text fill="#000000" font-family="sans-serif" font-size="14" lengthAdjust="spacing" textLength="171" x="381.5" y="70.5352">DetoxCircusEnvironment</text><rect fill="#E2E2F0" height="30.4883" rx="2.5" ry="2.5" style="stroke:#181818;stroke-width:0.5;" width="185" x="374.5" y="454.2148"/><text fill="#000000" font-family="sans-serif" font-size="14" lengthAdjust="spacing" textLength="171" x="381.5" y="474.75">DetoxCircusEnvironment</text><rect fill="#FFFFFF" height="324.416" style="stroke:#181818;stroke-width:1.0;" width="10" x="148.5" y="112.7988"/><rect fill="#FFFFFF" height="295.1055" style="stroke:#181818;stroke-width:1.0;" width="10" x="278.5" y="142.1094"/><rect fill="#FFFFFF" height="146.5527" style="stroke:#181818;stroke-width:1.0;" width="10" x="462" y="254.3516"/><polygon fill="#181818" points="136.5,108.7988,146.5,112.7988,136.5,116.7988,140.5,112.7988" style="stroke:#181818;stroke-width:1.0;"/><line style="stroke:#181818;stroke-width:1.0;" x1="23.5" x2="142.5" y1="112.7988" y2="112.7988"/><text fill="#000000" font-family="sans-serif" font-size="13" lengthAdjust="spacing" textLength="106" x="30.5" y="108.0566">jest --runInBand</text><polygon fill="#181818" points="266.5,138.1094,276.5,142.1094,266.5,146.1094,270.5,142.1094" style="stroke:#181818;stroke-width:1.0;"/><line style="stroke:#181818;stroke-width:1.0;" x1="158.5" x2="272.5" y1="142.1094" y2="142.1094"/><text fill="#000000" font-family="sans-serif" font-size="13" lengthAdjust="spacing" textLength="94" x="165.5" y="137.3672">require('detox')</text><polygon fill="#181818" points="266.5,167.4199,276.5,171.4199,266.5,175.4199,270.5,171.4199" style="stroke:#181818;stroke-width:1.0;"/><line style="stroke:#181818;stroke-width:1.0;" x1="158.5" x2="272.5" y1="171.4199" y2="171.4199"/><text fill="#000000" font-family="sans-serif" font-size="13" lengthAdjust="spacing" textLength="95" x="165.5" y="166.6777">resolveConfig()</text><polygon fill="#181818" points="266.5,196.7305,276.5,200.7305,266.5,204.7305,270.5,200.7305" style="stroke:#181818;stroke-width:1.0;"/><line style="stroke:#181818;stroke-width:1.0;" x1="158.5" x2="272.5" y1="200.7305" y2="200.7305"/><text fill="#000000" font-family="sans-serif" font-size="13" lengthAdjust="spacing" textLength="29" x="165.5" y="195.9883">init()</text><path d="M104.5,215.7305 L178.5,215.7305 L178.5,223.041 L168.5,233.041 L104.5,233.041 L104.5,215.7305 " fill="#EEEEEE" style="stroke:#000000;stroke-width:1.5;"/><rect fill="none" height="193.1738" style="stroke:#000000;stroke-width:1.5;" width="465" x="104.5" y="215.7305"/><text fill="#000000" font-family="sans-serif" font-size="13" font-weight="bold" lengthAdjust="spacing" textLength="29" x="119.5" y="229.2988">loop</text><text fill="#000000" font-family="sans-serif" font-size="11" font-weight="bold" lengthAdjust="spacing" textLength="85" x="193.5" y="228.3652">[every test file]</text><polygon fill="#181818" points="450,250.3516,460,254.3516,450,258.3516,454,254.3516" style="stroke:#181818;stroke-width:1.0;"/><line style="stroke:#181818;stroke-width:1.0;" x1="158.5" x2="456" y1="254.3516" y2="254.3516"/><text fill="#000000" font-family="sans-serif" font-size="13" lengthAdjust="spacing" textLength="33" x="165.5" y="249.6094">new()</text><polygon fill="#181818" points="450,279.6621,460,283.6621,450,287.6621,454,283.6621" style="stroke:#181818;stroke-width:1.0;"/><line style="stroke:#181818;stroke-width:1.0;" x1="158.5" x2="456" y1="283.6621" y2="283.6621"/><text fill="#000000" font-family="sans-serif" font-size="13" lengthAdjust="spacing" textLength="43" x="165.5" y="278.9199">setup()</text><polygon fill="#181818" points="299.5,308.9727,289.5,312.9727,299.5,316.9727,295.5,312.9727" style="stroke:#181818;stroke-width:1.0;"/><line style="stroke:#181818;stroke-width:1.0;" x1="293.5" x2="461" y1="312.9727" y2="312.9727"/><text fill="#000000" font-family="sans-serif" font-size="13" lengthAdjust="spacing" textLength="91" x="305.5" y="308.2305">installWorker()</text><polygon fill="#181818" points="450,338.2832,460,342.2832,450,346.2832,454,342.2832" style="stroke:#181818;stroke-width:1.0;"/><line style="stroke:#181818;stroke-width:1.0;" x1="158.5" x2="456" y1="342.2832" y2="342.2832"/><text fill="#000000" font-family="sans-serif" font-size="13" lengthAdjust="spacing" textLength="73" x="165.5" y="337.541">run test file</text><polygon fill="#181818" points="450,367.5938,460,371.5938,450,375.5938,454,371.5938" style="stroke:#181818;stroke-width:1.0;"/><line style="stroke:#181818;stroke-width:1.0;" x1="158.5" x2="456" y1="371.5938" y2="371.5938"/><text fill="#000000" font-family="sans-serif" font-size="13" lengthAdjust="spacing" textLength="66" x="165.5" y="366.8516">teardown()</text><polygon fill="#181818" points="299.5,396.9043,289.5,400.9043,299.5,404.9043,295.5,400.9043" style="stroke:#181818;stroke-width:1.0;"/><line style="stroke:#181818;stroke-width:1.0;" x1="293.5" x2="466" y1="400.9043" y2="400.9043"/><text fill="#000000" font-family="sans-serif" font-size="13" lengthAdjust="spacing" textLength="107" x="305.5" y="396.1621">uninstallWorker()</text><polygon fill="#181818" points="271.5,433.2148,281.5,437.2148,271.5,441.2148,275.5,437.2148" style="stroke:#181818;stroke-width:1.0;"/><line style="stroke:#181818;stroke-width:1.0;" x1="153.5" x2="277.5" y1="437.2148" y2="437.2148"/><text fill="#000000" font-family="sans-serif" font-size="13" lengthAdjust="spacing" textLength="57" x="160.5" y="432.4727">cleanup()</text><!--MD5=[d723f86ef872a9492d425e220916f4b6]
@startuml

actor User
boundary "Jest (main)" as Jest0
participant "DetoxPrimaryContext" as Pri
participant "DetoxCircusEnvironment" as Env

User -> Jest0 : jest - -runInBand
activate Jest0
Jest0 -> Pri: require('detox')
activate Pri
Jest0 -> Pri: resolveConfig()
Jest0 -> Pri: init()
loop every test file
  Jest0 -> Env: new()
  activate Env
  Jest0 -> Env: setup()
  Env -> Pri: installWorker()
  Jest0 -> Env: run test file
  Jest0 -> Env: teardown()
  Env -> Pri: uninstallWorker()
  deactivate Env
end loop
Jest0 -> Pri: cleanup()
deactivate Pri
deactivate Jest0

@enduml

PlantUML version 1.2022.6(Tue Jun 21 20:34:49 EEST 2022)
(GPL source distribution)
Java Runtime: OpenJDK Runtime Environment
JVM: OpenJDK 64-Bit Server VM
Default Encoding: UTF-8
Language: en
Country: UA
--></g></svg>